<?xml version="1.0" encoding="UTF-8"?>
<svg version="1.1" xmlns="http://www.w3.org/2000/svg" width="500" height="500">
<path d="M0 0 C165 0 330 0 500 0 C500 165 500 330 500 500 C335 500 170 500 0 500 C0 335 0 170 0 0 Z " fill="#FEFEFE" transform="translate(0,0)"/>
<path d="M0 0 C0.99 0 1.98 0 3 0 C3 44.55 3 89.1 3 135 C18.18 135 33.36 135 49 135 C48.01 132.03 47.02 129.06 46 126 C44.01126823 114.78023827 50.09673416 104.6315961 56.12109375 95.6015625 C63.32238689 85.63054123 73.04139306 76.49797833 85.3359375 73.4140625 C91.58579416 72.44267715 99.12712251 71.54931613 104.9375 74.5 C109.48222833 78.20998231 113.1282845 82.38485351 115 88 C116.04950064 102.48310883 114.50029197 114.31651359 104.94140625 125.90234375 C102.36948004 128.68126603 99.69257133 131.33772483 97 134 C101.47904099 134.087842 105.95785724 134.14067447 110.4375 134.1875 C111.69755859 134.21263672 112.95761719 134.23777344 114.25585938 134.26367188 C122.81877737 134.33074434 129.58629806 133.81306308 136.88671875 129.16015625 C141.77244691 124.16605704 144.23869819 116.78868507 144.6875 109.875 C143.57023693 88.88857204 128.7640813 63.16658247 115 48 C111.73079584 45.13944636 110.13622768 44.06683692 105.8125 43.8125 C97.57861426 46.37715294 90.844191 51.7297907 84.75390625 57.71484375 C83 59 83 59 79 59 C80.87236174 43.14343649 101.52676028 24.97258548 113 15 C121.51023187 8.81735292 121.51023187 8.81735292 127.03515625 9.22265625 C137.54728203 11.9787999 144.00005744 20.91641417 149.32421875 29.81640625 C156.08234681 41.44294884 161.33874976 53.02916048 165 66 C165.30164063 66.95519531 165.60328125 67.91039062 165.9140625 68.89453125 C171.50164351 87.98108133 167.11347448 109.62197743 158 127 C152.79576328 136.05084648 146.28594041 143.60643861 139 151 C138.34386719 151.66902344 137.68773437 152.33804688 137.01171875 153.02734375 C122.8838895 166.36861291 105.20120905 171.51454189 86.25390625 171.296875 C79.10056691 171.04172404 72.78976318 169.15369558 66 167 C63.37397318 166.1751014 63.37397318 166.1751014 61 166 C59.49937026 167.17440588 58.00401788 168.36196289 56.60546875 169.65625 C49.24040435 175.82068346 39.35561078 175.24212418 30.35473633 175.29516602 C29.00209052 175.30664693 27.64948863 175.32703726 26.29711914 175.35668945 C15.64143928 175.58972143 7.52172278 174.47438192 -1.1875 168.125 C-8.61208027 161.00101003 -12.13798398 151.56107681 -13.6640625 141.60546875 C-13.78945908 140.79287094 -13.91485565 139.98027313 -14.04405212 139.14305115 C-15.44309365 129.13229712 -15.47425974 119.08780067 -15.5395813 108.99639893 C-15.57907394 103.07923453 -15.66465499 97.16274822 -15.75 91.24609375 C-15.76652115 90.05391235 -15.7830423 88.86173096 -15.80006409 87.63342285 C-16.01127772 73.94403375 -16.64969781 60.27984713 -17.34008789 46.60766602 C-17.3834729 45.74350571 -17.42685791 44.8793454 -17.47155762 43.98899841 C-17.55208335 42.40452991 -17.63486314 40.82017327 -17.72058105 39.23597717 C-17.82877357 37.15760187 -17.92029384 35.07965288 -18 33 C-18.04536392 31.91047279 -18.04536392 31.91047279 -18.09164429 30.79893494 C-18.22605944 25.31857588 -17.285381 23.30881338 -13.5 19.3125 C-8.70346593 14.06123292 -5.17180841 8.61248594 -1.69140625 2.421875 C-1.13324219 1.62265625 -0.57507813 0.8234375 0 0 Z " fill="#4BABB7" transform="translate(154,145)"/>
<path d="M0 0 C0.67413211 1.91405367 1.3390332 3.83136026 2 5.75 C2.37125 6.81734375 2.7425 7.8846875 3.125 8.984375 C4 12 4 12 4 16 C3.01 16.33 2.02 16.66 1 17 C1.00169189 18.32221558 1.00169189 18.32221558 1.00341797 19.67114258 C0.99339195 22.99520415 0.95648879 26.31685306 0.90234375 29.64038086 C0.88436368 31.06867273 0.87658206 32.49713588 0.87988281 33.92553711 C0.89300339 43.27723227 0.17320741 51.41509012 -6 59 C-10.49345922 60.49781974 -14.91703242 60.26622247 -19.625 60.3125 C-20.58535156 60.34150391 -21.54570312 60.37050781 -22.53515625 60.40039062 C-29.24467071 60.45956545 -34.11935341 59.23865675 -40 56 C-40 56.66 -40 57.32 -40 58 C-46.38683253 59.69083038 -52.34104248 60.32032336 -58.9375 60.25 C-59.81631836 60.24685791 -60.69513672 60.24371582 -61.60058594 60.24047852 C-66.91374873 60.17290487 -71.80137868 59.67465533 -76.96875 58.3828125 C-81.34125813 57.55876289 -85.52246978 58.72293926 -89.83959961 59.5324707 C-95.39012427 60.3535796 -100.9615276 60.18452866 -106.5625 60.1875 C-107.78130859 60.19974609 -109.00011719 60.21199219 -110.25585938 60.22460938 C-111.43083984 60.22654297 -112.60582031 60.22847656 -113.81640625 60.23046875 C-114.88318604 60.23457764 -115.94996582 60.23868652 -117.04907227 60.24291992 C-120.10530439 59.99133136 -122.27271709 59.38436083 -125 58 C-125.890625 56.15234375 -125.890625 56.15234375 -126.25 53.9375 C-126.37890625 53.22464844 -126.5078125 52.51179688 -126.640625 51.77734375 C-126.75921875 50.86082031 -126.8778125 49.94429688 -127 49 C-127.0832251 48.36118896 -127.1664502 47.72237793 -127.25219727 47.06420898 C-128.08961989 40.18204808 -128.32024737 33.30278123 -128.51757812 26.37695312 C-128.55173828 25.48298828 -128.58589844 24.58902344 -128.62109375 23.66796875 C-128.65867798 22.46563599 -128.65867798 22.46563599 -128.69702148 21.23901367 C-129.02759351 18.79608371 -129.86115619 17.16538697 -131 15 C-130.70874584 11.53804711 -129.31342381 9.93328216 -126.75 7.6875 C-123.45947308 4.98044795 -123.45947308 4.98044795 -120.0625 5.125 C-119.381875 5.41375 -118.70125 5.7025 -118 6 C-116.12389091 10.74545239 -115.73167383 14.98207543 -115.8046875 20.0234375 C-115.8075174 20.76961334 -115.81034729 21.51578918 -115.81326294 22.28457642 C-115.82438313 24.64821988 -115.84947179 27.01147268 -115.875 29.375 C-115.88504038 30.98567158 -115.89416438 32.59634915 -115.90234375 34.20703125 C-115.9225871 38.13828937 -115.96174963 42.06871171 -116 46 C-109.4 46 -102.8 46 -96 46 C-96.33 44.35 -96.66 42.7 -97 41 C-97.59070475 34.99450171 -96.88523347 31.67364144 -93.4296875 26.6953125 C-90.62504089 23.369584 -87.26669544 21.60952792 -83 21 C-76.34560492 20.68312404 -72.48192564 20.95930559 -67.1875 25.3125 C-63.47316178 30.00490848 -64.4904059 36.36534528 -65 42 C-65.33 43.32 -65.66 44.64 -66 46 C-58.41 46 -50.82 46 -43 46 C-44.38922901 38.97509135 -44.38922901 38.97509135 -46 32 C-44.5437455 31.32880451 -43.08492133 30.66318193 -41.625 30 C-40.81289063 29.62875 -40.00078125 29.2575 -39.1640625 28.875 C-37 28 -37 28 -35 28 C-32.54401923 31.68397116 -32.7728468 34.44723808 -32.875 38.6875 C-32.91625 41.100625 -32.9575 43.51375 -33 46 C-25.41 46 -17.82 46 -10 46 C-10.495 42.04 -10.495 42.04 -11 38 C-11.12316618 35.95077505 -11.21846719 33.899619 -11.28125 31.84765625 C-11.33732422 30.18766602 -11.33732422 30.18766602 -11.39453125 28.49414062 C-11.44673828 26.79547852 -11.44673828 26.79547852 -11.5 25.0625 C-11.7284534 17.65468696 -12.06404855 10.35501845 -13 3 C-4.5 0 -4.5 0 0 0 Z " fill="#50ADB9" transform="translate(335,363)"/>
<path d="M0 0 C3.75593966 0.51563602 5.7403653 1.77760483 8.50390625 4.34375 C13.63600089 11.60459129 14.44683068 18.6421974 13.50390625 27.34375 C11.98731456 31.1069346 10.21532392 34.48804116 6.50390625 36.34375 C0.71875084 37.02550232 -4.00823174 37.12975412 -8.93359375 33.78125 C-9.53042969 33.30558594 -10.12726563 32.82992187 -10.7421875 32.33984375 C-12.42027798 31.11791703 -12.42027798 31.11791703 -14.16424561 31.7743988 C-17.33145679 32.5477148 -20.29950199 32.46297481 -23.55957031 32.45727539 C-24.61383209 32.45749443 -24.61383209 32.45749443 -25.68939209 32.4577179 C-28.00519938 32.45702299 -30.32092556 32.44925038 -32.63671875 32.44140625 C-34.24525916 32.43954057 -35.85380013 32.43811737 -37.46234131 32.43711853 C-41.69064917 32.43330516 -45.91892254 32.42348495 -50.1472168 32.41241455 C-54.4640252 32.40217506 -58.78083919 32.39761547 -63.09765625 32.39257812 C-71.56381789 32.38186162 -80.02995153 32.36479937 -88.49609375 32.34375 C-88.89006348 33.15489258 -89.2840332 33.96603516 -89.68994141 34.80175781 C-90.2163623 35.87264648 -90.7427832 36.94353516 -91.28515625 38.046875 C-91.80287598 39.10551758 -92.3205957 40.16416016 -92.85400391 41.25488281 C-95.02274513 45.3344121 -97.59709862 48.75451794 -100.49609375 52.34375 C-104.45609375 50.36375 -108.41609375 48.38375 -112.49609375 46.34375 C-111.41071174 42.00222197 -111.33279353 41.8973487 -107.87109375 39.71875 C-102.86564967 36.12532993 -99.13383034 31.94894026 -96.49609375 26.34375 C-95.89142951 21.11172466 -97.63031011 16.19478745 -99.49609375 11.34375 C-93.11595191 7.29481383 -93.11595191 7.29481383 -90.12109375 7.53125 C-88.49609375 8.34375 -88.49609375 8.34375 -87.49609375 9.34375 C-87.49609375 12.64375 -87.49609375 15.94375 -87.49609375 19.34375 C-64.39609375 19.34375 -41.29609375 19.34375 -17.49609375 19.34375 C-16.50609375 16.37375 -15.51609375 13.40375 -14.49609375 10.34375 C-10.53214333 2.66359606 -8.72779364 -0.30490109 0 0 Z " fill="#4FADB9" transform="translate(343.49609375,84.65625)"/>
<path d="M0 0 C0.99 0.33 1.98 0.66 3 1 C1.50240839 31.95022666 -14.85362876 76.5209388 -38.03125 97.87109375 C-46.56253833 104.65888466 -54.39014532 106.62874117 -65.1875 106.375 C-66.24130859 106.37371094 -67.29511719 106.37242187 -68.38085938 106.37109375 C-73.61803573 106.31169288 -78.11377146 106.10977053 -83 104 C-82.828125 102.2265625 -82.828125 102.2265625 -82 100 C-79.734375 98.2109375 -79.734375 98.2109375 -76.75 96.375 C-65.20429239 88.97425614 -54.92714139 80.44181447 -45 71 C-44.36707031 70.41992188 -43.73414063 69.83984375 -43.08203125 69.2421875 C-23.31997553 50.55976902 -10.30873223 24.74778433 0 0 Z " fill="#4CACB8" transform="translate(365,235)"/>
<path d="M0 0 C4.07854048 1.35951349 5.50693113 3.56360778 8 7 C8 8.32 8 9.64 8 11 C5.375 12.921875 5.375 12.921875 2 14.75 C0.88625 15.36359375 -0.2275 15.9771875 -1.375 16.609375 C-2.24125 17.06828125 -3.1075 17.5271875 -4 18 C-2.80209997 20.41376857 -1.58029868 22.81267637 -0.34375 25.20703125 C0.27097608 26.40878116 0.88555577 27.61060596 1.5 28.8125 C1.80808594 29.40353516 2.11617188 29.99457031 2.43359375 30.60351562 C6.61923482 38.84006684 7.46969845 44.4361416 5.125 53.3125 C2.19196431 57.02192749 -0.2335216 56.90847963 -4.76708984 57.63369751 C-10.46890589 58.27973755 -16.14272081 58.2641101 -21.875 58.23046875 C-23.16188721 58.23001053 -24.44877441 58.22955231 -25.7746582 58.2290802 C-28.47401481 58.22753013 -31.173236 58.21934847 -33.87255859 58.20581055 C-37.33027707 58.18868551 -40.78784951 58.18500093 -44.24560547 58.18575573 C-47.55958988 58.18541895 -50.87352635 58.17659128 -54.1875 58.16796875 C-55.42806152 58.16685593 -56.66862305 58.1657431 -57.94677734 58.16459656 C-59.09227051 58.15821671 -60.23776367 58.15183685 -61.41796875 58.14526367 C-62.42625732 58.14145187 -63.4345459 58.13764008 -64.47338867 58.13371277 C-67 58 -67 58 -70 57 C-70.33 58.258125 -70.66 59.51625 -71 60.8125 C-73.03822082 67.0564155 -76.97984093 71.89124678 -81 77 C-86.32656159 76.28325304 -89.49222665 74.79481947 -94 72 C-94 71.01 -94 70.02 -94 69 C-92.4609375 67.640625 -92.4609375 67.640625 -90.375 66.25 C-85.19571748 62.56756686 -81.5096582 58.2644873 -78 53 C-77.47497686 46.80472699 -78.56154919 42.68971855 -81 37 C-79.73308493 36.32591692 -78.46129251 35.66099503 -77.1875 35 C-76.47980469 34.62875 -75.77210938 34.2575 -75.04296875 33.875 C-73 33 -73 33 -70 33 C-68 36 -68 36 -68 45 C-46.88 44.67 -25.76 44.34 -4 44 C-6.84108874 36.92727005 -6.84108874 36.92727005 -10 30 C-10.79792969 29.90460938 -11.59585938 29.80921875 -12.41796875 29.7109375 C-15 29 -15 29 -16.36328125 26.6015625 C-16.67652344 25.61929688 -16.98976563 24.63703125 -17.3125 23.625 C-17.63863281 22.64789063 -17.96476562 21.67078125 -18.30078125 20.6640625 C-19 18 -19 18 -19 15 C-16.875 12.94921875 -16.875 12.94921875 -14 10.6875 C-12.9996875 9.89988281 -11.999375 9.11226562 -10.96875 8.30078125 C-9.9890625 7.54152344 -9.009375 6.78226562 -8 6 C-7.2059375 5.35417969 -6.411875 4.70835938 -5.59375 4.04296875 C-4.9028125 3.49253906 -4.211875 2.94210938 -3.5 2.375 C-2.8915625 1.88773438 -2.283125 1.40046875 -1.65625 0.8984375 C-1.1096875 0.60195313 -0.563125 0.30546875 0 0 Z " fill="#4FADB9" transform="translate(230,59)"/>
<path d="M0 0 C5.37227821 2.53962243 8.54110251 6.35275627 10.75 11.875 C11.94383548 22.02260155 8.85810069 28.84050261 3 37 C3.63228516 37.72316406 3.63228516 37.72316406 4.27734375 38.4609375 C4.82519531 39.09257812 5.37304688 39.72421875 5.9375 40.375 C6.48277344 41.00148438 7.02804688 41.62796875 7.58984375 42.2734375 C10.03029766 45.26147248 10.45334739 47.76946485 10.41796875 51.6328125 C9.59334724 56.30309882 6.95511592 60.35354963 4 64 C-1.85523959 68.06757795 -10.56329489 67.29581418 -17.4375 67.4375 C-18.34048828 67.48326172 -19.24347656 67.52902344 -20.17382812 67.57617188 C-26.2906863 67.67804569 -29.70130416 66.5150627 -34.42602539 62.60839844 C-38.3718622 58.57626367 -39.21576835 54.05868686 -39.625 48.625 C-39.50022117 42.18106462 -36.34440759 38.48848233 -32 34 C-30.68 34.33 -29.36 34.66 -28 35 C-27.95101562 35.81984375 -27.90203125 36.6396875 -27.8515625 37.484375 C-27.77679688 38.56203125 -27.70203125 39.6396875 -27.625 40.75 C-27.55539063 41.81734375 -27.48578125 42.8846875 -27.4140625 43.984375 C-27.02244952 46.83649974 -26.57385348 48.61436947 -25 51 C-17.56891024 54.81081526 -7.97765934 53.204175 0 52 C-3.00336223 48.53898257 -5.31280768 47.30647436 -9.75 46.25 C-10.73484375 46.00765625 -11.7196875 45.7653125 -12.734375 45.515625 C-13.48203125 45.34546875 -14.2296875 45.1753125 -15 45 C-15.3125 41.6875 -15.3125 41.6875 -15 38 C-12.5 36.0625 -12.5 36.0625 -10 35 C-10.9075 34.4225 -11.815 33.845 -12.75 33.25 C-16.68128494 30.52834119 -19.46949049 28.59152852 -21 24 C-21.72395772 17.01897917 -21.72390451 11.37111957 -17.40234375 5.625 C-16.93957031 5.08875 -16.47679687 4.5525 -16 4 C-15.29875 3.175 -14.5975 2.35 -13.875 1.5 C-9.34228402 -0.86489529 -4.99918381 -0.72047061 0 0 Z " fill="#4DACB8" transform="translate(189,367)"/>
<path d="M0 0 C3.75084334 4.45412646 5.56093446 8.22781368 5.27734375 14.171875 C4.2158626 22.60392247 1.40479209 28.68185148 -5 34.375 C-7.5 35.875 -7.5 35.875 -10 36.375 C-11.051875 36.601875 -12.10375 36.82875 -13.1875 37.0625 C-19.3675187 35.9480704 -22.94631977 31.99605874 -27 27.375 C-30.0884935 22.91459363 -31.91041491 19.13684012 -32.1875 13.6875 C-29.6199421 6.52536479 -24.70075411 2.60128902 -18 -0.625 C-12.19927069 -2.42940223 -5.39238085 -2.92087296 0 0 Z " fill="#FCFEFE" transform="translate(254,239.625)"/>
<path d="M0 0 C0.66 0 1.32 0 2 0 C3.26513672 1.48120117 3.26513672 1.48120117 4.6796875 3.54296875 C5.45505859 4.65961914 5.45505859 4.65961914 6.24609375 5.79882812 C6.78363281 6.58708984 7.32117188 7.37535156 7.875 8.1875 C8.93344278 9.72365844 9.99330664 11.25883885 11.0546875 12.79296875 C11.55581055 13.52435059 12.05693359 14.25573242 12.57324219 15.00927734 C14.0925169 17.19617955 14.0925169 17.19617955 16.4453125 19.80078125 C18 22 18 22 17.76074219 23.8894043 C16.91513702 26.23544304 15.83736041 27.94443475 14.3828125 29.96875 C13.85816406 30.70480469 13.33351563 31.44085938 12.79296875 32.19921875 C12.24253906 32.95847656 11.69210937 33.71773437 11.125 34.5 C10.58230469 35.25925781 10.03960937 36.01851562 9.48046875 36.80078125 C7.02442116 40.22963987 4.53788294 43.63117869 2 47 C-1.31483132 45.89505623 -1.7969511 45.29515873 -3.77734375 42.578125 C-4.29103516 41.88203125 -4.80472656 41.1859375 -5.33398438 40.46875 C-6.12772461 39.37046875 -6.12772461 39.37046875 -6.9375 38.25 C-7.98760798 36.81721464 -9.03837509 35.38491211 -10.08984375 33.953125 C-10.58597168 33.27443359 -11.08209961 32.59574219 -11.59326172 31.89648438 C-13.33530895 29.54795558 -15.15018879 27.26434722 -17 25 C-15.70307668 21.38201611 -14.16842908 18.6463223 -11.77734375 15.64453125 C-11.15666016 14.85755859 -10.53597656 14.07058594 -9.89648438 13.25976562 C-9.25001953 12.45216797 -8.60355469 11.64457031 -7.9375 10.8125 C-6.65353223 9.19513327 -5.37091174 7.57669578 -4.08984375 5.95703125 C-3.52128662 5.24522705 -2.95272949 4.53342285 -2.36694336 3.80004883 C-0.94308187 2.04013852 -0.94308187 2.04013852 0 0 Z " fill="#4CACB8" transform="translate(350,161)"/>
<path d="M0 0 C1.9765625 0.1484375 1.9765625 0.1484375 4 1 C5.2109375 2.6640625 5.2109375 2.6640625 6.375 4.625 C7.80485268 6.65174287 7.80485268 6.65174287 10 8 C14.77105444 8.32481509 19.29108477 7.76761769 24 7 C24.65625 8.75 24.65625 8.75 25 11 C23.87317334 13.18536079 22.48504275 15.02036731 21.03125 17 C19.8025306 18.9347293 19.8025306 18.9347293 20.21484375 21.06640625 C21.02519421 23.26959764 21.02519421 23.26959764 23.0625 25.9375 C25.05305544 29.08386183 25.42516543 30.38609384 25 34 C20.84697381 35.18657891 18.90537312 34.65978357 15 33 C12.55555148 32.57790477 12.55555148 32.57790477 10 33 C7.89565138 34.71570267 7.89565138 34.71570267 6.1875 37 C5.58292969 37.7425 4.97835937 38.485 4.35546875 39.25 C3.68451172 40.11625 3.68451172 40.11625 3 41 C1.0625 40.625 1.0625 40.625 -1 40 C-2.38226016 37.23547967 -2.09525387 34.9538637 -2.0625 31.875 C-2.05347656 30.77929688 -2.04445312 29.68359375 -2.03515625 28.5546875 C-2.02355469 27.71164063 -2.01195312 26.86859375 -2 26 C-2.75667969 25.70351562 -3.51335937 25.40703125 -4.29296875 25.1015625 C-7.28156056 23.88542557 -10.12856041 22.46910863 -13 21 C-12.9375 19.1875 -12.9375 19.1875 -12 17 C-8.5039097 15.18721244 -5.96018245 14 -2 14 C-2.02320313 13.15695313 -2.04640625 12.31390625 -2.0703125 11.4453125 C-2.08835938 10.34960938 -2.10640625 9.25390625 -2.125 8.125 C-2.14820313 7.03445312 -2.17140625 5.94390625 -2.1953125 4.8203125 C-2 2 -2 2 0 0 Z " fill="#FEAD53" transform="translate(186,173)"/>
<path d="M0 0 C-0.33 17.82 -0.66 35.64 -1 54 C-3.97 54 -6.94 54 -10 54 C-12.24233771 36.92006593 -13.46215083 20.22756098 -13 3 C-7.86921582 0.53722359 -6.07514391 0 0 0 Z " fill="#4EACB8" transform="translate(357,369)"/>
<path d="M0 0 C3.62104791 1.28908199 6.26812542 2.79002898 9.20703125 5.2578125 C9.95791016 5.88300781 10.70878906 6.50820312 11.48242188 7.15234375 C12.25134766 7.80332031 13.02027344 8.45429687 13.8125 9.125 C14.60076172 9.78371094 15.38902344 10.44242188 16.20117188 11.12109375 C18.1389481 12.74177932 20.07161245 14.3681652 22 16 C21.6875 17.9375 21.6875 17.9375 21 20 C18 21 18 21 15.63989258 20.10375977 C14.73392334 19.63768311 13.8279541 19.17160645 12.89453125 18.69140625 C11.91162109 18.19189453 10.92871094 17.69238281 9.91601562 17.17773438 C8.89185547 16.64470703 7.86769531 16.11167969 6.8125 15.5625 C5.25885742 14.76875977 5.25885742 14.76875977 3.67382812 13.95898438 C1.11119034 12.64814201 -1.44633287 11.32821043 -4 10 C-3.1953125 3.2421875 -3.1953125 3.2421875 -1.4375 1.0625 C-0.7259375 0.5365625 -0.7259375 0.5365625 0 0 Z " fill="#FFCF50" transform="translate(305,71)"/>
<path d="M0 0 C0.66 0 1.32 0 2 0 C3.2890625 1.42578125 3.2890625 1.42578125 4.625 3.3125 C5.07101562 3.92738281 5.51703125 4.54226563 5.9765625 5.17578125 C7 7 7 7 7 10 C4.3125 12.3125 4.3125 12.3125 1 14 C-0.68076231 13.36971413 -2.34795544 12.70211894 -4 12 C-7.28441679 13.26638076 -7.28441679 13.26638076 -10 15 C-11.98 12.36 -13.96 9.72 -16 7 C-10.85714286 1.42857143 -10.85714286 1.42857143 -7 1 C-6.67 1.66 -6.34 2.32 -6 3 C-2.75016865 1.91215032 -2.75016865 1.91215032 0 0 Z " fill="#51AEBA" transform="translate(260,366)"/>
<path d="M0 0 C1.2890625 1.75 1.2890625 1.75 2.625 4 C3.07101563 4.7425 3.51703125 5.485 3.9765625 6.25 C4.31429687 6.8275 4.65203125 7.405 5 8 C0.375 12.875 0.375 12.875 -3 14 C-5.1875 13.0625 -5.1875 13.0625 -7 12 C-7.61875 12.495 -8.2375 12.99 -8.875 13.5 C-11 15 -11 15 -13 15 C-14.2890625 13.57421875 -14.2890625 13.57421875 -15.625 11.6875 C-16.07101563 11.07261719 -16.51703125 10.45773437 -16.9765625 9.82421875 C-18 8 -18 8 -18 5 C-15.375 2.6875 -15.375 2.6875 -12 1 C-9.98072489 1.60578253 -7.97746603 2.26919734 -6 3 C-1.09090909 0 -1.09090909 0 0 0 Z " fill="#50AEB9" transform="translate(182,437)"/>
<path d="M0 0 C2.71385998 1.27728491 5.03264938 2.6708469 7.3828125 4.53125 C7.99253906 5.01207031 8.60226563 5.49289062 9.23046875 5.98828125 C9.85566406 6.48714844 10.48085937 6.98601562 11.125 7.5 C11.75792969 7.99886719 12.39085937 8.49773437 13.04296875 9.01171875 C15.47259037 10.935814 17.8061477 12.8061477 20 15 C19.625 17.125 19.625 17.125 19 19 C12.89395661 18.55869594 8.77540413 16.55188828 3.5625 13.4375 C2.46518555 12.80038086 2.46518555 12.80038086 1.34570312 12.15039062 C-0.44213758 11.11040486 -2.22192662 10.05659823 -4 9 C-3.34820749 5.18416621 -2.53101025 2.97118595 0 0 Z " fill="#FB7C55" transform="translate(136,371)"/>
<path d="M0 0 C0.99 -0.66 1.98 -1.32 3 -2 C5.78151533 -1.82615529 6.80039297 -1.19272403 8.8125 0.75 C10 3 10 3 10.0625 5.5625 C8.55657218 9.0172756 6.39611933 9.6271007 3 11 C1.68 10.01 0.36 9.02 -1 8 C-2.32 8.99 -3.64 9.98 -5 11 C-8.80881639 9.55527654 -10.29742886 7.67396929 -12 4 C-11 1 -11 1 -8.8125 -0.8125 C-5.12974362 -2.36744158 -3.64616116 -1.34749434 0 0 Z " fill="#4FADB9" transform="translate(294,378)"/>
<path d="M0 0 C0.99 0 1.98 0 3 0 C3.66 0.99 4.32 1.98 5 3 C8.56769552 3.73606499 8.56769552 3.73606499 12 4 C11.4740625 4.99 11.4740625 4.99 10.9375 6 C9.67146591 10.0513091 10.29385518 12.83374555 11 17 C10.071875 16.773125 9.14375 16.54625 8.1875 16.3125 C5.03682848 15.62434952 5.03682848 15.62434952 3.25 17.4375 C2.8375 17.953125 2.425 18.46875 2 19 C1.34 19 0.68 19 0 19 C-0.12375 17.329375 -0.12375 17.329375 -0.25 15.625 C-0.57873787 11.94246056 -0.57873787 11.94246056 -3.0625 10.5625 C-3.701875 10.376875 -4.34125 10.19125 -5 10 C-4.67 9.01 -4.34 8.02 -4 7 C-3.01 6.67 -2.02 6.34 -1 6 C-0.67 4.02 -0.34 2.04 0 0 Z " fill="#F4FAFB" transform="translate(339,95)"/>
<path d="M0 0 C4.01838288 0.05768014 6.70446193 0.40094826 9.75 3.25 C10.3207506 6.10375301 10.19922027 7.51010779 8.6875 10 C5.6855747 11.936726 3.29762251 12.18883409 -0.25 12.25 C-3.1875 10.75 -3.1875 10.75 -5.25 8.25 C-5.625 4.5625 -5.625 4.5625 -5.25 1.25 C-3.68966377 -0.31033623 -2.16052864 0.04292441 0 0 Z " fill="#F7FBFC" transform="translate(252.25,395.75)"/>
<path d="M0 0 C3 1.5625 3 1.5625 5 4 C5.8125 7.75 5.8125 7.75 6 11 C-0.52340785 11.33741765 -4.53510912 10.65641634 -9.875 6.5625 C-11 5 -11 5 -11 1 C-7.52876063 -0.73561969 -3.79525855 -0.45883955 0 0 Z " fill="#F4FAFA" transform="translate(186,379)"/>
<path d="M0 0 C1.2065625 0.0309375 1.2065625 0.0309375 2.4375 0.0625 C5.35683419 5.41461268 8.10297934 10.86100164 8.4375 17.0625 C7.7775 17.7225 7.1175 18.3825 6.4375 19.0625 C4.515625 19.01171875 4.515625 19.01171875 2.4375 18.0625 C0.734375 15.76953125 0.734375 15.76953125 -0.8125 12.875 C-1.59367187 11.46154297 -1.59367187 11.46154297 -2.390625 10.01953125 C-3.67033952 6.79038495 -3.86137292 4.50451974 -3.5625 1.0625 C-2.5625 0.0625 -2.5625 0.0625 0 0 Z " fill="#FFCF51" transform="translate(325.5625,64.9375)"/>
<path d="M0 0 C0.74886475 0.00523682 1.49772949 0.01047363 2.26928711 0.01586914 C3.07817383 0.0190918 3.88706055 0.02231445 4.72045898 0.02563477 C5.5705957 0.03401367 6.42073242 0.04239258 7.29663086 0.05102539 C8.15063477 0.05553711 9.00463867 0.06004883 9.88452148 0.06469727 C12.00108749 0.07652166 14.11761771 0.0944577 16.23413086 0.11352539 C16.85913086 2.48852539 16.85913086 2.48852539 17.23413086 5.11352539 C14.60689262 7.74076363 12.69201413 7.3746851 9.11303711 7.38696289 C8.32799805 7.37922852 7.54295898 7.37149414 6.73413086 7.36352539 C5.55657227 7.37512695 5.55657227 7.37512695 4.35522461 7.38696289 C-1.51256127 7.36683326 -1.51256127 7.36683326 -3.76586914 5.11352539 C-3.02051452 0.19418488 -3.02051452 0.19418488 0 0 Z " fill="#FFD051" transform="translate(304.765869140625,92.886474609375)"/>
<path d="M0 0 C1.58206057 0.00667536 3.16410534 0.0186375 4.74609375 0.03515625 C5.55240234 0.03966797 6.35871094 0.04417969 7.18945312 0.04882812 C9.18753131 0.06065107 11.18557158 0.07858711 13.18359375 0.09765625 C13.80859375 2.47265625 13.80859375 2.47265625 14.18359375 5.09765625 C12.18359375 7.09765625 12.18359375 7.09765625 8.5234375 7.328125 C7.05592511 7.32413358 5.58841166 7.30937783 4.12109375 7.28515625 C3.37537109 7.28451172 2.62964844 7.28386719 1.86132812 7.28320312 C-3.67612466 7.23793784 -3.67612466 7.23793784 -4.81640625 6.09765625 C-4.94140625 3.59765625 -4.94140625 3.59765625 -4.81640625 1.09765625 C-3.81640625 0.09765625 -3.81640625 0.09765625 0 0 Z " fill="#FB7F5A" transform="translate(137.81640625,390.90234375)"/>
<path d="M0 0 C2.5625 1 2.5625 1 4.25 4.125 C5.55001673 7.69265954 6.58916454 11.33127403 7.5625 15 C6.9025 15.66 6.2425 16.32 5.5625 17 C3.11328125 16.921875 3.11328125 16.921875 0.5625 16 C-1.01953125 13.890625 -1.01953125 13.890625 -2.25 11.25 C-2.66894531 10.38890625 -3.08789062 9.5278125 -3.51953125 8.640625 C-4.46916777 5.90890464 -4.61803422 3.86791497 -4.4375 1 C-2.4375 0 -2.4375 0 0 0 Z " fill="#FB7F59" transform="translate(155.4375,366)"/>
<path d="M0 0 C2.78349856 1.0558098 4.00409146 2.00518252 5.875 4.375 C7 7 7 7 6.4375 9.125 C4.79577082 11.26638589 3.34249297 12.65129193 1 14 C-3.04131267 12.65289578 -3.90288434 10.61571666 -6 7 C-6 6.01 -6 5.02 -6 4 C-3 1.8125 -3 1.8125 0 0 Z " fill="#52AEBA" transform="translate(183,350)"/>
<path d="M0 0 C2.83014485 1.9725252 3.70813476 4.32245996 5.0625 7.4375 C-0.6875 12.4375 -0.6875 12.4375 -2.9375 12.4375 C-4.2265625 10.6875 -4.2265625 10.6875 -5.5625 8.4375 C-6.00851563 7.695 -6.45453125 6.9525 -6.9140625 6.1875 C-7.25179687 5.61 -7.58953125 5.0325 -7.9375 4.4375 C-2.84408002 -0.82570065 -2.84408002 -0.82570065 0 0 Z " fill="#52AEBA" transform="translate(154.9375,77.5625)"/>
<path d="M0 0 C3.16115776 1.36983503 3.9927092 1.9890638 6 5 C5.8125 7.0625 5.8125 7.0625 5 9 C2 11 2 11 0 10.875 C-2.54634201 9.76097537 -3.51322983 8.30449377 -5 6 C-3.63016497 2.83884224 -3.0109362 2.0072908 0 0 Z " fill="#53AFBA" transform="translate(293,365)"/>
</svg>
