<?xml version="1.0" encoding="UTF-8"?>
<svg version="1.1" xmlns="http://www.w3.org/2000/svg" width="1001" height="1001">
<path d="M0 0 C3.14257812 -0.19067383 3.14257812 -0.19067383 6 0 C6.13200951 24.56129814 6.2624531 49.12260419 6.39115143 73.68391991 C6.45097494 85.09429686 6.51126581 96.50467095 6.57275391 107.91503906 C6.6264952 117.88807057 6.67926102 127.86110673 6.73096704 137.834149 C6.75824513 143.08953393 6.78593526 148.34491576 6.81480408 153.60029221 C6.98173785 184.06736354 7.01890932 214.53235339 7 245 C33.73 244.67 60.46 244.34 88 244 C86.68 239.71 85.36 235.42 84 231 C80.70360454 208.58451088 90.00378039 189.58791177 103 172 C119.27054454 150.37173716 139.67678965 134.96687043 167 131 C176.91864619 129.97970081 186.81453077 132.30723608 194.9375 138.1875 C203.80820919 145.83970518 208.49396056 156.49672731 210 168 C211.31960118 191.11839758 205.03802051 212.69112115 189.5625 230.1875 C178.14258982 242.42870509 178.14258982 242.42870509 175 244 C180.70677464 244.05006956 186.41341669 244.08603072 192.12036133 244.10986328 C194.05495435 244.11981638 195.98953275 244.13338371 197.92407227 244.15087891 C225.1107683 244.69475889 225.1107683 244.69475889 248.9609375 233.046875 C257.75113908 224.22299449 261.03634219 211.82390909 261.3125 199.6875 C260.94904341 161.28225378 233.28414772 114.07948937 207 87 C200.70672295 81.50341304 200.70672295 81.50341304 193 79 C190.43519948 79.94825371 188.16611112 80.94312839 185.75 82.1875 C185.04979736 82.54408691 184.34959473 82.90067383 183.62817383 83.26806641 C171.93703756 89.45756827 161.64856864 97.79687719 152.52734375 107.33203125 C150 109 150 109 146.19140625 108.76171875 C145.13824219 108.51035156 144.08507812 108.25898438 143 108 C142.12410846 104.61025024 141.68232672 102.69631416 143.16015625 99.45703125 C143.78792969 98.58433594 144.41570312 97.71164062 145.0625 96.8125 C145.79984375 95.77609375 146.5371875 94.7396875 147.296875 93.671875 C147.93399414 92.8065918 147.93399414 92.8065918 148.58398438 91.92382812 C150.16233814 89.77944404 151.71358789 87.61662517 153.265625 85.453125 C160.12993583 75.95075779 167.26767389 66.80801796 175 58 C175.63292969 57.2678125 176.26585937 56.535625 176.91796875 55.78125 C178.59907734 53.84239708 180.2984815 51.9209451 182 50 C182.67289063 49.22269531 183.34578125 48.44539063 184.0390625 47.64453125 C194.61973332 35.58705302 210.3181598 19.17474468 227 16 C237.29446555 16.03562099 246.37125478 23.72350409 253.49609375 30.40234375 C262.24977437 39.48377528 268.89015996 50.02747805 275 61 C275.43989258 61.78938965 275.87978516 62.5787793 276.33300781 63.39208984 C283.23633612 75.90467476 289.06228865 88.59345434 294 102 C294.36665771 102.96848877 294.36665771 102.96848877 294.74072266 103.95654297 C309.76370095 143.88575612 307.19424301 184.90418838 290.078125 223.65576172 C282.01643018 241.18483637 270.33260617 256.17286096 257 270 C255.82050781 271.27423828 255.82050781 271.27423828 254.6171875 272.57421875 C231.08607312 297.30907001 199.02395642 310.11238512 165.234375 310.99609375 C149.40947697 311.15573597 133.38070202 308.24307127 118.6953125 302.27734375 C115.04359543 301.01506946 114.38463991 300.79344453 111 302 C109.27447402 303.1969613 107.5905703 304.4548109 105.9375 305.75 C89.76691172 317.72266072 73.0083834 318.53910138 53.5715332 318.50097656 C50.07354686 318.50000307 46.57774995 318.54175328 43.08007812 318.5859375 C31.16624321 318.65052608 20.80767924 318.5518694 10 313 C9.2980249 312.64454102 8.5960498 312.28908203 7.87280273 311.92285156 C-9.0543263 302.41054863 -17.30881157 285.85782193 -22.40332031 267.91967773 C-25.60725865 255.72691238 -26.30612775 243.51039733 -26.46012306 230.98045158 C-26.49332748 228.30663973 -26.53789638 225.63320918 -26.58512878 222.95960999 C-26.65261957 219.10331957 -26.7163969 215.2469972 -26.77713013 211.39059448 C-27.35478433 175.27651112 -28.58425549 139.25634118 -30.72150421 103.20158768 C-31.05297022 97.58857483 -31.35628149 91.97436795 -31.64624786 86.35906601 C-31.88117654 81.90803432 -32.17487889 77.46402773 -32.49631214 73.01845074 C-32.71082566 69.91712736 -32.88515127 66.81433149 -33.05111504 63.71006966 C-33.13799824 62.24271207 -33.24130249 60.7762149 -33.36268806 59.31130791 C-34.28383496 48.04804139 -34.28383496 48.04804139 -31.10548401 42.97776794 C-28.85413835 40.47352082 -26.49803762 38.25346804 -24 36 C-21.56907042 33.06398466 -19.31430458 30.01240739 -17.0625 26.9375 C-16.16917969 25.73226685 -16.16917969 25.73226685 -15.2578125 24.50268555 C-10.7551534 18.31818645 -6.82368958 11.90911285 -3.37133789 5.07983398 C-2.28125 3.05078125 -2.28125 3.05078125 0 0 Z M130.9921875 184.65234375 C125.7345182 190.83499588 125.7345182 190.83499588 123.90234375 198.5546875 C125.63261835 211.96917595 134.48030233 223.66702245 144.57421875 232.16796875 C149.91652611 236.20265821 154.74866464 237.65416674 161.38671875 237.40234375 C169.40933114 236.16717323 175.21030355 231.66518357 180.25 225.5078125 C186.97284436 215.87373643 191.87040978 201.86009839 190 190 C187.7839903 181.58443937 183.29422467 175.59786391 176.6875 170.0625 C160.44520987 163.64112949 142.07864266 172.83599741 130.9921875 184.65234375 Z " fill="#068699" transform="translate(326,300)"/>
<path d="M0 0 C1.17516669 4.080936 2.33865407 8.16511141 3.5 12.25 C3.83386719 13.40886719 4.16773438 14.56773437 4.51171875 15.76171875 C4.98544922 17.43427734 4.98544922 17.43427734 5.46875 19.140625 C5.76201172 20.16704102 6.05527344 21.19345703 6.35742188 22.25097656 C7 25 7 25 7 29 C4.35261084 30.4606285 3.10551666 31 0 31 C0.02442673 31.65716003 0.04885345 32.31432007 0.07402039 32.99139404 C0.32057604 39.93596394 0.48456194 46.87926118 0.60424805 53.82714844 C0.65900036 56.40709041 0.73363491 58.98670051 0.82983398 61.56542969 C1.31236289 74.84916661 1.50147305 86.74246584 -4.91796875 98.703125 C-5.35522781 99.52770203 -5.79248688 100.35227905 -6.24299622 101.20184326 C-8.22565586 104.40073521 -9.77884131 106.50668695 -13.32380676 107.93875122 C-15.90118721 108.50459416 -18.36881244 108.81646101 -21 109 C-21.70602859 109.05736328 -22.41205719 109.11472656 -23.13948059 109.17382812 C-25.15567832 109.29133352 -27.15631213 109.32926087 -29.17578125 109.3359375 C-29.90766159 109.3425943 -30.63954193 109.3492511 -31.39360046 109.35610962 C-32.92700731 109.36613462 -34.4604569 109.37092983 -35.99389648 109.37060547 C-38.29811932 109.37497274 -40.60041174 109.41138167 -42.90429688 109.44921875 C-52.27920999 109.51894504 -60.13891817 108.38064766 -69 105 C-69.99 104.67 -70.98 104.34 -72 104 C-72.41009811 104.47085022 -72.82019623 104.94170044 -73.24272156 105.42681885 C-78.2165069 109.87953685 -86.81233657 109.29825901 -93.13671875 109.265625 C-93.97862259 109.26753845 -94.82052643 109.2694519 -95.6879425 109.27142334 C-97.45855002 109.27277511 -99.22916779 109.26914969 -100.99975586 109.26074219 C-103.66348413 109.25009598 -106.32652763 109.26063713 -108.99023438 109.2734375 C-120.74258204 109.28370616 -132.37001833 109.12763754 -143.5625 105.125 C-149.25295472 103.42961379 -153.32849091 104.85075892 -158.76171875 106.921875 C-165.67973758 109.2250996 -172.83462811 109.15893887 -180.0546875 109.16796875 C-181.46707199 109.17296135 -181.46707199 109.17296135 -182.9079895 109.17805481 C-184.88966385 109.18309194 -186.8713466 109.18546414 -188.85302734 109.18530273 C-191.8591937 109.18748851 -194.86499216 109.20567679 -197.87109375 109.22460938 C-199.80729043 109.22754425 -201.74348883 109.22952842 -203.6796875 109.23046875 C-204.5654245 109.23765427 -205.4511615 109.24483978 -206.36373901 109.25224304 C-213.4932071 109.22656845 -221.84267678 109.00790294 -228 105 C-228.7727941 102.1684824 -229.25994545 99.64006341 -229.625 96.75 C-229.74343262 95.90445557 -229.86186523 95.05891113 -229.98388672 94.18774414 C-231.63534573 81.94297105 -232.91904603 69.6391154 -233.16796875 57.28125 C-233.24647594 41.7984815 -233.24647594 41.7984815 -238.13671875 27.3203125 C-239 25 -239 25 -238.2421875 23.05712891 C-236.14332489 19.58130022 -233.24384498 17.02577933 -230.3125 14.25 C-229.71244141 13.64800781 -229.11238281 13.04601562 -228.49414062 12.42578125 C-227.89408203 11.85730469 -227.29402344 11.28882813 -226.67578125 10.703125 C-226.13864502 10.18395508 -225.60150879 9.66478516 -225.0480957 9.12988281 C-222.06851119 7.48612109 -219.34691977 7.92990744 -216 8 C-211.87986615 17.81113086 -210.25954549 25.98493804 -210.29296875 36.7109375 C-210.27980721 38.05858552 -210.26448962 39.406214 -210.24714661 40.7538147 C-210.20780216 44.24884746 -210.19713956 47.74335849 -210.19311523 51.23858643 C-210.18368659 54.82587781 -210.14647842 58.41288367 -210.11132812 62 C-210.04471548 69.00038359 -210.02340823 75.99880978 -210 83 C-198.12 83 -186.24 83 -174 83 C-174.66 81.35 -175.32 79.7 -176 78 C-177.74798083 67.11740967 -177.37707496 58.16571175 -170.82421875 49.07421875 C-164.47455454 41.85436501 -155.97317865 38.55105634 -146.5703125 37.68359375 C-137.56125865 37.38329196 -131.25086065 38.59931148 -124.1875 44.25 C-118.22235724 51.74903661 -116.30876716 59.44075565 -117 69 C-117.78347864 74.2905001 -118.97671327 79.04875919 -121 84 C-115.98259166 83.90610966 -110.96564573 83.79993819 -105.94873047 83.68261719 C-104.24372381 83.64444781 -102.53863994 83.60957434 -100.83349609 83.578125 C-98.37569674 83.53221164 -95.91842348 83.47426231 -93.4609375 83.4140625 C-92.70444916 83.40251129 -91.94796082 83.39096008 -91.16854858 83.37905884 C-86.7613169 83.25748301 -83.1031794 82.61743586 -79 81 C-80.13700865 73.26534904 -82.10711152 66.26030749 -85 59 C-82.62918558 57.84475582 -80.25396043 56.70074792 -77.875 55.5625 C-77.20984375 55.23701172 -76.5446875 54.91152344 -75.859375 54.57617188 C-71.90132029 52.69415567 -68.41020487 51.48773294 -64 51 C-61.13156334 56.36272941 -59.95622377 60.82647363 -59.68359375 66.86328125 C-59.62075195 68.19262695 -59.62075195 68.19262695 -59.55664062 69.54882812 C-59.51732422 70.46083984 -59.47800781 71.37285156 -59.4375 72.3125 C-59.39431641 73.24384766 -59.35113281 74.17519531 -59.30664062 75.13476562 C-59.20102775 77.42304454 -59.09892248 79.71142372 -59 82 C-55.50746534 83.16417822 -52.75036326 83.12950829 -49.06640625 83.1328125 C-48.39206039 83.13376923 -47.71771454 83.13472595 -47.02293396 83.13571167 C-45.59821479 83.13639141 -44.1734925 83.1345515 -42.7487793 83.13037109 C-40.57398473 83.12502821 -38.39939746 83.13031869 -36.22460938 83.13671875 C-34.83854121 83.13605777 -33.45247318 83.13477619 -32.06640625 83.1328125 C-30.80771729 83.13168457 -29.54902832 83.13055664 -28.25219727 83.12939453 C-25.61831911 83.02460094 -23.49455565 82.78709621 -21 82 C-20.85856428 70.52013374 -21.22710449 59.08619873 -21.74462891 47.61889648 C-21.87554474 44.67525156 -21.99454745 41.73126777 -22.11328125 38.78710938 C-22.19718968 36.88278033 -22.28180046 34.97848207 -22.3671875 33.07421875 C-22.40061249 32.21044113 -22.43403748 31.34666351 -22.46847534 30.45671082 C-22.71840094 25.24559493 -23.41647872 20.31346307 -24.54202271 15.21784973 C-25.20671474 11.99894113 -25.4657917 9.26054191 -25 6 C-21.05823434 2.910508 -16.7645196 2.12216507 -11.9375 1.3125 C-11.23044922 1.18294922 -10.52339844 1.05339844 -9.79492188 0.91992188 C-6.45723319 0.32759966 -3.40153836 0 0 0 Z M-160 63 C-161.25927204 67.28152495 -161.2168517 69.45315659 -159.5625 73.625 C-156.92982803 77.65143948 -153.43169302 80.18938612 -149 82 C-143.63836182 82.22340159 -139.13644525 79.22344607 -135 76 C-132.68220301 73.12422973 -132.68220301 73.12422973 -133 69.5625 C-133.6925184 65.79437334 -133.6925184 65.79437334 -136.875 63.625 C-141.50767852 61.21600717 -144.81646889 60.83949756 -150 60.8125 C-151.85625 60.79123047 -151.85625 60.79123047 -153.75 60.76953125 C-157.14759425 60.74128981 -157.14759425 60.74128981 -160 63 Z " fill="#068699" transform="translate(655,695)"/>
<path d="M0 0 C8.30231097 4.84528312 12.58001303 13.37822676 15.1875 22.37109375 C17.7572268 33.52442188 17.77551432 46.16786315 12.17578125 56.42578125 C8.33664169 61.93761679 4.06124931 64.5666574 -2.5 66 C-10.65890713 66.98553136 -18.36119619 64.95087234 -25.05859375 60.17578125 C-26.57587303 58.94750755 -28.06890897 57.68822305 -29.52734375 56.390625 C-31.64262647 54.6158835 -31.64262647 54.6158835 -35.5 55 C-36.44735708 55.48755925 -36.44735708 55.48755925 -37.41385269 55.98496819 C-40.0416147 57.26352701 -41.9613542 57.24618414 -44.87835693 57.24050903 C-45.96928146 57.24325836 -47.06020599 57.24600769 -48.18418884 57.24884033 C-49.37605301 57.24164978 -50.56791718 57.23445923 -51.79589844 57.22705078 C-53.05469315 57.22734283 -54.31348785 57.22763489 -55.61042786 57.22793579 C-59.05848532 57.22850947 -62.50640356 57.21675276 -65.95442867 57.20278788 C-69.55923188 57.19028304 -73.16403831 57.18911021 -76.76885986 57.18673706 C-83.59341432 57.18052157 -90.41790469 57.16410982 -97.24243093 57.14403808 C-105.01262075 57.12168124 -112.78281364 57.11068619 -120.55302763 57.10064721 C-136.53538887 57.07974364 -152.51768617 57.04456632 -168.5 57 C-169.02384277 58.06653809 -169.54768555 59.13307617 -170.08740234 60.23193359 C-170.7950689 61.6625232 -171.50292409 63.09301952 -172.2109375 64.5234375 C-172.55374756 65.22267334 -172.89655762 65.92190918 -173.24975586 66.64233398 C-177.99737297 76.20941806 -183.37072408 85.91293895 -191.5 93 C-196.46883505 91.52403189 -200.78781486 89.40510877 -205.3125 86.9375 C-205.99248047 86.57333984 -206.67246094 86.20917969 -207.37304688 85.83398438 C-212.3510721 83.1489279 -212.3510721 83.1489279 -213.5 82 C-213.87109375 79.671875 -213.87109375 79.671875 -213.5 77 C-211.41015625 75.078125 -211.41015625 75.078125 -208.5625 73.25 C-198.06183606 66.02995322 -189.24332358 56.48664716 -183.5 45 C-182.66497857 38.73733927 -184.8467188 33.94205624 -187.2109375 28.18359375 C-188.43759073 25.15413197 -189.49908062 22.1103336 -190.5 19 C-187.73796468 17.46276266 -184.96414848 15.94815839 -182.1875 14.4375 C-181.40181641 13.99986328 -180.61613281 13.56222656 -179.80664062 13.11132812 C-179.04931641 12.70205078 -178.29199219 12.29277344 -177.51171875 11.87109375 C-176.46697388 11.29766235 -176.46697388 11.29766235 -175.40112305 10.71264648 C-173.5 10 -173.5 10 -170.5 11 C-166.69410663 15.7013977 -166.16252715 19.83742763 -165.8828125 25.7734375 C-165.84357666 26.46912842 -165.80434082 27.16481934 -165.76391602 27.8815918 C-165.66874543 29.58734146 -165.58338683 31.29363369 -165.5 33 C-149.80998253 33.11682649 -134.12008256 33.20498456 -118.42973804 33.25906086 C-111.14433562 33.28483742 -103.85920352 33.31997691 -96.57397461 33.37719727 C-90.22379125 33.4270497 -83.87380366 33.45929502 -77.52343005 33.47044247 C-74.16115913 33.47695834 -70.79944827 33.4922594 -67.43735695 33.52865028 C-63.68291416 33.56486155 -59.92963769 33.56994834 -56.17504883 33.56762695 C-55.06158585 33.58560333 -53.94812286 33.60357971 -52.80091858 33.62210083 C-46.60401493 33.62387948 -46.60401493 33.62387948 -41.33425903 30.58287048 C-39.81814616 28.44799033 -38.69721298 26.79814706 -37.91015625 24.328125 C-37.68642334 23.66780273 -37.46269043 23.00748047 -37.23217773 22.32714844 C-37.01118408 21.64168945 -36.79019043 20.95623047 -36.5625 20.25 C-33.62596507 11.83913669 -30.25965385 4.03328899 -22.5 -1 C-15.3734373 -3.3755209 -6.84743469 -3.10583796 0 0 Z M-15.5 18 C-16.41692961 20.75078884 -16.60886083 22.35948913 -16.5625 25.1875 C-16.541875 26.445625 -16.52125 27.70375 -16.5 29 C-17.61375 29.268125 -18.7275 29.53625 -19.875 29.8125 C-23.71840951 30.65809019 -23.71840951 30.65809019 -25.5 34 C-21.83019796 36.91171789 -21.83019796 36.91171789 -17.5 38 C-17.5 41.96 -17.5 45.92 -17.5 50 C-16.18 50.33 -14.86 50.66 -13.5 51 C-12.79875 49.989375 -12.0975 48.97875 -11.375 47.9375 C-9.99609375 46.2734375 -9.99609375 46.2734375 -8.5 45 C-5.4375 45.0625 -5.4375 45.0625 -2.5 46 C-1.71625 46.185625 -0.9325 46.37125 -0.125 46.5625 C0.41125 46.706875 0.9475 46.85125 1.5 47 C2.30469849 45.29887008 2.30469849 45.29887008 2.5 43 C2.005 42.030625 1.51 41.06125 1 40.0625 C-0.5 37 -0.5 37 -0.375 34.4375 C0.60311056 31.71276343 2.00430187 29.47115343 3.5 27 C3.5 26.01 3.5 25.02 3.5 24 C2.39591797 24.23009766 2.39591797 24.23009766 1.26953125 24.46484375 C-1.77259191 24.95110122 -4.42614863 25.26879941 -7.5 25 C-9.43617734 23.33793316 -10.36235389 21.83725453 -11.5 19.56640625 C-11.995 18.79103516 -11.995 18.79103516 -12.5 18 C-13.49 18 -14.48 18 -15.5 18 Z " fill="#068699" transform="translate(678.5,193)"/>
<path d="M0 0 C1.67542976 0.28604898 3.34385343 0.61781233 5 1 C6.16910513 5.94459032 5.66787013 9.88773536 4.48046875 14.73828125 C4.30676758 15.48332916 4.13306641 16.22837708 3.95410156 16.9960022 C3.37902102 19.43836121 2.78496302 21.87552585 2.1875 24.3125 C1.88230942 25.57527267 1.88230942 25.57527267 1.57095337 26.86355591 C-11.23057513 79.71313044 -30.89828457 155.27057564 -79.71972656 186.06152344 C-95.43316896 195.43430244 -112.17141378 194.59327519 -129.75 193.1875 C-131.16817017 193.08248169 -131.16817017 193.08248169 -132.61499023 192.9753418 C-139.33286393 192.38927349 -145.55538839 190.96953466 -152 189 C-152.75 187.25 -152.75 187.25 -153 185 C-150.62045955 182.02950366 -147.87115974 180.13640198 -144.61328125 178.22265625 C-143.76572266 177.71589355 -142.91816406 177.20913086 -142.04492188 176.68701172 C-141.14322266 176.15092285 -140.24152344 175.61483398 -139.3125 175.0625 C-124.46083788 166.04541943 -111.07590964 155.40177027 -98 144 C-97.18789063 143.30003906 -96.37578125 142.60007812 -95.5390625 141.87890625 C-83.74880752 131.51836657 -72.65571271 120.37734089 -63 108 C-62.12174582 106.94259945 -61.24002885 105.88806856 -60.35546875 104.8359375 C-46.30743651 87.9778201 -34.52327518 69.22581311 -24 50 C-23.10365845 48.38351562 -23.10365845 48.38351562 -22.18920898 46.734375 C-16.90547269 37.10169277 -12.41260221 27.20770266 -8.0625 17.125 C-7.0586161 14.80997486 -6.05297769 12.49573842 -5.04478455 10.18258667 C-4.42541443 8.76040329 -3.80873371 7.33704486 -3.19508362 5.91238403 C-1.11105642 1.11105642 -1.11105642 1.11105642 0 0 Z " fill="#068699" transform="translate(709,463)"/>
<path d="M0 0 C3.83327537 1.55842216 6.27018396 4.83371359 9.02734375 7.82421875 C9.55457031 8.35917969 10.08179688 8.89414063 10.625 9.4453125 C14.02851186 13.09531825 14.02851186 13.09531825 14.0234375 16.26171875 C12.59474926 19.93708927 10.49115654 20.78622836 7.08984375 22.69921875 C5.90860168 23.38142991 4.72893142 24.06636928 3.55078125 24.75390625 C2.96006836 25.09518555 2.36935547 25.43646484 1.76074219 25.78808594 C-2.31038433 28.22158748 -6.13041703 31.04878635 -9.97265625 33.82421875 C-9.56015625 34.36046875 -9.14765625 34.89671875 -8.72265625 35.44921875 C0.10318569 47.4271471 5.86466901 60.6032355 10.02734375 74.82421875 C10.23488281 75.4790625 10.44242188 76.13390625 10.65625 76.80859375 C12.24042672 85.41317469 9.74572466 93.6658823 5.02734375 100.82421875 C0.7611727 103.09287002 -3.19983214 103.50748672 -7.97265625 103.82421875 C-9.13895065 103.99122284 -10.30524506 104.15822693 -11.50688171 104.33029175 C-16.61795187 104.9778396 -21.69362142 104.96417945 -26.83911133 104.95361328 C-27.89859985 104.9553656 -28.95808838 104.95711792 -30.04968262 104.95892334 C-33.53053453 104.9633033 -37.01133513 104.96041853 -40.4921875 104.95703125 C-42.91737376 104.95770515 -45.34255995 104.95867589 -47.76774597 104.95993042 C-52.83890428 104.96140195 -57.91004492 104.95926939 -62.98120117 104.95458984 C-69.48923291 104.94887764 -75.99722354 104.95218442 -82.50525379 104.95816231 C-87.50740369 104.96176963 -92.50954377 104.9606288 -97.51169395 104.95803452 C-99.91234021 104.95736651 -102.31298736 104.95818927 -104.71363258 104.96051407 C-108.0601705 104.96304502 -111.40664096 104.95919436 -114.75317383 104.95361328 C-115.74905014 104.95563751 -116.74492645 104.95766174 -117.77098083 104.95974731 C-118.68068634 104.95692749 -119.59039185 104.95410767 -120.52766418 104.95120239 C-121.71363552 104.95063685 -121.71363552 104.95063685 -122.92356586 104.95005989 C-124.97265625 104.82421875 -124.97265625 104.82421875 -127.97265625 103.82421875 C-128.49859375 105.64953125 -128.49859375 105.64953125 -129.03515625 107.51171875 C-133.11872017 119.62945726 -140.60480865 131.98998272 -149.97265625 140.82421875 C-154.95145292 139.28745631 -159.59235041 137.31173491 -164.28515625 135.07421875 C-165.01283203 134.75195312 -165.74050781 134.4296875 -166.49023438 134.09765625 C-168.50127362 133.13055816 -170.24318228 132.23598784 -171.97265625 130.82421875 C-172.953125 127.55859375 -172.953125 127.55859375 -172.97265625 124.82421875 C-172.43898438 124.49550781 -171.9053125 124.16679687 -171.35546875 123.828125 C-158.98766257 115.93241483 -147.89724891 105.50632493 -141.97265625 91.82421875 C-140.99988891 84.78831251 -144.82656399 78.05977804 -147.6953125 71.86328125 C-148.97265625 68.82421875 -148.97265625 68.82421875 -148.97265625 65.82421875 C-146.18394448 64.48463954 -143.39122563 63.1536344 -140.59765625 61.82421875 C-139.4065625 61.251875 -139.4065625 61.251875 -138.19140625 60.66796875 C-137.43085938 60.30703125 -136.6703125 59.94609375 -135.88671875 59.57421875 C-135.18498535 59.2390625 -134.48325195 58.90390625 -133.76025391 58.55859375 C-131.97265625 57.82421875 -131.97265625 57.82421875 -129.97265625 57.82421875 C-125.53303365 63.60918153 -124.83163668 67.99143804 -124.91015625 75.13671875 C-124.91917969 76.20535156 -124.92820312 77.27398437 -124.9375 78.375 C-124.94910156 79.18324219 -124.96070313 79.99148437 -124.97265625 80.82421875 C-113.1233106 80.87080733 -101.27398718 80.90622158 -89.42456818 80.92784309 C-83.92087033 80.93822663 -78.4172357 80.95228519 -72.91357422 80.97509766 C-67.59024952 80.99702151 -62.26698518 81.00882807 -56.94361877 81.01397324 C-54.9249222 81.01763425 -52.90622847 81.02478187 -50.88755798 81.03567886 C-36.93941078 81.10789501 -23.73830441 80.15789913 -9.97265625 77.82421875 C-11.02259689 74.96487031 -12.08700332 72.11235065 -13.16015625 69.26171875 C-13.45212891 68.46185547 -13.74410156 67.66199219 -14.04492188 66.83789062 C-16.05952873 61.530593 -18.08533751 57.01532217 -21.97265625 52.82421875 C-25.68424482 52.23861426 -25.68424482 52.23861426 -28.97265625 52.82421875 C-30.37228646 49.08295099 -31.7379748 45.33017048 -33.09765625 41.57421875 C-33.49597656 40.51074219 -33.89429688 39.44726562 -34.3046875 38.3515625 C-34.67207031 37.32675781 -35.03945313 36.30195313 -35.41796875 35.24609375 C-35.76359863 34.3034668 -36.10922852 33.36083984 -36.46533203 32.38964844 C-36.97265625 29.82421875 -36.97265625 29.82421875 -36.17480469 27.59985352 C-31.16163031 20.19513839 -8.78819345 -0.78310635 0 0 Z " fill="#068699" transform="translate(465.97265625,145.17578125)"/>
<path d="M0 0 C8.77590303 5.55210192 13.85504945 11.50942889 16.84375 21.56640625 C19.21110774 32.26624026 18.32363221 43.24506716 13.0625 52.9375 C11.21779897 55.74658897 9.2064467 58.35215251 7.0625 60.9375 C6.27875 61.9275 5.495 62.9175 4.6875 63.9375 C4.15125 64.5975 3.615 65.2575 3.0625 65.9375 C3.67738281 66.43378906 4.29226563 66.93007813 4.92578125 67.44140625 C11.72772894 73.1585138 14.43421743 77.18713596 16.0625 85.9375 C16.21074219 86.67226563 16.35898437 87.40703125 16.51171875 88.1640625 C17.43502679 97.45768772 13.22721994 106.58616938 7.91308594 114.01757812 C2.59669804 119.53315522 -5.68155963 120.11378586 -12.9375 120.9375 C-14.02417969 121.12441406 -15.11085938 121.31132813 -16.23046875 121.50390625 C-30.79451762 123.20739353 -48.89364013 124.69319146 -61.5625 116.171875 C-67.95897057 110.96449191 -71.72937506 105.11471602 -72.9375 96.9375 C-73.12619073 93.76992812 -73.16806586 90.61012298 -73.1875 87.4375 C-73.208125 86.59574219 -73.22875 85.75398437 -73.25 84.88671875 C-73.30316565 76.44667176 -69.56900363 72.28131775 -64.25 66.125 C-63.73888672 65.52751953 -63.22777344 64.93003906 -62.70117188 64.31445312 C-61.44988181 62.85266567 -60.19414027 61.39469067 -58.9375 59.9375 C-55.9655615 61.06201727 -53.60309313 62.16043791 -50.9375 63.9375 C-50.96770886 67.66074159 -51.29138476 71.23873952 -51.69921875 74.93359375 C-52.21385147 80.78875465 -51.4714682 84.60036606 -48.9375 89.9375 C-42.72754736 95.69306586 -34.86380284 96.13981848 -26.77246094 95.86376953 C-18.89277856 95.45812084 -11.50850333 94.25694033 -3.9375 91.9375 C-7.39023394 86.01852753 -12.67460371 84.68434897 -18.9375 82.9375 C-22.58840804 82.13970898 -26.24054477 81.48095957 -29.9375 80.9375 C-30.53475095 76.46475397 -30.83347914 72.38050245 -29.9375 67.9375 C-26.97972535 65.0160489 -23.78638294 63.44268815 -19.9375 61.9375 C-20.72253906 61.5971875 -21.50757813 61.256875 -22.31640625 60.90625 C-30.41076242 57.17192126 -36.12081896 53.31480017 -40.3125 45.3125 C-43.40008834 33.57966432 -42.15065672 22.23834757 -36.25 11.5625 C-28.62238857 -0.21014097 -13.32980236 -4.99867589 0 0 Z M-26.9375 23.9375 C-26.69332562 28.08846454 -26.37205006 30.39120849 -23.75 33.6875 C-16.20035157 39.72721874 -7.42972901 41.35020561 2.0625 40.9375 C3.72526386 35.94920843 1.26727528 31.53307847 -0.9375 26.9375 C-5.46550757 22.40949243 -8.46369093 21.78291261 -14.75 21.75 C-16.58498047 21.72873047 -16.58498047 21.72873047 -18.45703125 21.70703125 C-21.76421123 21.92602521 -23.9766898 22.51067147 -26.9375 23.9375 Z " fill="#068699" transform="translate(391.9375,703.0625)"/>
<path d="M0 0 C3.15078009 1.34991366 4.78663118 2.66274979 6.7421875 5.46484375 C7.24451904 6.17374756 7.74685059 6.88265137 8.2644043 7.61303711 C8.79590088 8.38010986 9.32739746 9.14718262 9.875 9.9375 C11.02368683 11.56324435 12.17346568 13.18821755 13.32421875 14.8125 C14.22019775 16.08287109 14.22019775 16.08287109 15.13427734 17.37890625 C18.26226876 21.77332079 21.47623805 26.10376174 24.6875 30.4375 C25.85869566 32.01907028 27.02931364 33.6010686 28.19921875 35.18359375 C28.69252686 35.84931396 29.18583496 36.51503418 29.6940918 37.20092773 C33.01368853 41.77413924 33.01368853 41.77413924 32.890625 43.8046875 C31.631907 46.90731696 29.72959616 49.45336541 27.75 52.125 C26.84243351 53.37108326 25.93488221 54.61717758 25.02734375 55.86328125 C24.53991699 56.5279541 24.05249023 57.19262695 23.55029297 57.87744141 C21.91851 60.11157072 20.30327212 62.3569323 18.69140625 64.60546875 C7.80916503 79.77551112 7.80916503 79.77551112 2 87 C-1.27532127 85.61479553 -2.91082291 84.16818851 -4.9609375 81.28125 C-5.5084668 80.52199219 -6.05599609 79.76273437 -6.62011719 78.98046875 C-7.48878418 77.75263672 -7.48878418 77.75263672 -8.375 76.5 C-9.61502458 74.77968887 -10.85727592 73.06098099 -12.1015625 71.34375 C-12.7399707 70.46203125 -13.37837891 69.5803125 -14.03613281 68.671875 C-17.7663861 63.59680141 -21.66526209 58.65340527 -25.55615234 53.70117188 C-26.10996582 52.99541016 -26.6637793 52.28964844 -27.234375 51.5625 C-27.72131836 50.94503906 -28.20826172 50.32757813 -28.70996094 49.69140625 C-32.03550042 45.33119854 -32.03550042 45.33119854 -31.79174805 43.05712891 C-30.9046314 40.7522122 -29.80791109 39.06650109 -28.33203125 37.0859375 C-27.77491455 36.33320557 -27.21779785 35.58047363 -26.64379883 34.80493164 C-26.03947021 34.0030542 -25.4351416 33.20117676 -24.8125 32.375 C-24.19334717 31.54411865 -23.57419434 30.7132373 -22.9362793 29.85717773 C-16.87178788 21.75258254 -10.66260863 13.75985331 -4.40356445 5.80493164 C-2.91217345 3.88705832 -1.45247527 1.94746037 0 0 Z " fill="#068699" transform="translate(682,329)"/>
<path d="M0 0 C2.89619431 -0.12067476 4.36620957 -0.09617266 7 1 C11.76461571 5.71157732 15.32300957 11.43152003 19 17 C20.71896484 16.566875 20.71896484 16.566875 22.47265625 16.125 C24.00250068 15.74957805 25.53245451 15.37460171 27.0625 15 C27.81466797 14.80921875 28.56683594 14.6184375 29.34179688 14.421875 C33.97526202 13.29861072 38.19446709 12.63881982 43 13 C45 14.6875 45 14.6875 46 17 C45.73473404 21.32227472 43.75791595 24.11256409 41.45556641 27.62133789 C37.21821094 33.8499475 37.21821094 33.8499475 36.34375 41.0234375 C37.66767933 43.64707794 39.11375763 45.74989269 41 48 C45.91370882 54.35281615 45.91370882 54.35281615 46.5 58.75 C45.9670454 62.21420488 45.70446644 62.96550366 43 65 C36.9244539 65.69615632 30.96298197 63.0364571 25.48046875 60.7421875 C22.66304702 59.89917942 21.63794304 59.71795968 19 61 C16.72220643 63.39157375 16.72220643 63.39157375 14.5625 66.3125 C7.48953757 75.52580237 7.48953757 75.52580237 2.375 76.5 C0 76 0 76 -1.75 74.375 C-4.48468796 69.17909288 -4.12979846 63.35054619 -4.0625 57.625 C-4.05798828 56.88894531 -4.05347656 56.15289062 -4.04882812 55.39453125 C-4.03715142 53.59631842 -4.01922011 51.79814803 -4 50 C-5.10859375 49.46890625 -6.2171875 48.9378125 -7.359375 48.390625 C-8.82312706 47.67751502 -10.28665714 46.96394929 -11.75 46.25 C-12.84441406 45.72792969 -12.84441406 45.72792969 -13.9609375 45.1953125 C-17.89936501 43.26190263 -21.23188831 41.52371173 -24 38 C-24.0625 35.4375 -24.0625 35.4375 -23 33 C-19.30243931 30.43599806 -15.38773436 28.88228456 -11.1875 27.3125 C-9.44533203 26.65701172 -9.44533203 26.65701172 -7.66796875 25.98828125 C-6.78753906 25.66214844 -5.90710938 25.33601563 -5 25 C-4.95512451 24.38479492 -4.91024902 23.76958984 -4.86401367 23.13574219 C-4.65224669 20.3392577 -4.42009691 17.54482582 -4.1875 14.75 C-4.11724609 13.78191406 -4.04699219 12.81382812 -3.97460938 11.81640625 C-3.89404297 10.88183594 -3.81347656 9.94726562 -3.73046875 8.984375 C-3.66239014 8.12553711 -3.59431152 7.26669922 -3.52416992 6.38183594 C-2.91712721 3.62342479 -1.82711282 2.12125437 0 0 Z " fill="#F4891F" transform="translate(384,350)"/>
<path d="M0 0 C-0.10338684 1.61834999 -0.10338684 1.61834999 -0.2088623 3.26939392 C-0.84689039 13.68436492 -1.17394146 24.06976044 -1.26036072 34.50305367 C-1.28188397 37.07980445 -1.30883458 39.65645313 -1.33703613 42.23313904 C-1.40585782 48.60841522 -1.46664946 54.9837608 -1.52606201 61.35913086 C-1.57691658 66.80068771 -1.63158753 72.24217682 -1.69187927 77.68363762 C-1.71843323 80.22360624 -1.7392295 82.76358173 -1.7598877 85.30360413 C-1.77647164 86.84246138 -1.79334175 88.38131558 -1.81054688 89.92016602 C-1.81473129 90.62700027 -1.81891571 91.33383453 -1.82322693 92.06208801 C-1.88610968 96.88610968 -1.88610968 96.88610968 -3 98 C-5.69235776 98.23678716 -8.36498156 98.42198025 -11.0625 98.5625 C-12.20041992 98.62727539 -12.20041992 98.62727539 -13.36132812 98.69335938 C-15.24065438 98.79973633 -17.12030244 98.90039934 -19 99 C-24.21427521 67.88815794 -25.26112618 36.49583506 -25 5 C-23.3997937 4.35923983 -21.79952038 3.71864705 -20.19921875 3.078125 C-19.30807373 2.72137695 -18.41692871 2.36462891 -17.4987793 1.99707031 C-5.54529153 -2.77264576 -5.54529153 -2.77264576 0 0 Z " fill="#068699" transform="translate(695,706)"/>
<path d="M0 0 C2.46616024 1.60866258 4.6871001 3.48032737 6.9375 5.375 C8.26893335 6.46947776 9.60097947 7.56321044 10.93359375 8.65625 C11.6076123 9.213125 12.28163086 9.77 12.97607422 10.34375 C16.10913978 12.90764828 19.30482906 15.38928955 22.5 17.875 C27.10225847 21.47240969 31.61631316 25.13818064 36 29 C35.71097731 32.46827222 35.18328212 33.80653554 32.75 36.375 C30 38 30 38 27.86010742 37.86303711 C23.81748162 36.64317521 20.22712387 34.76058891 16.48828125 32.81640625 C15.67884567 32.40083969 14.8694101 31.98527313 14.03544617 31.55711365 C12.33028888 30.67995726 10.62668864 29.79976825 8.92456055 28.91674805 C6.31492473 27.56375713 3.69992273 26.22161682 1.08398438 24.88085938 C-0.57324476 24.02667791 -2.23015699 23.17188127 -3.88671875 22.31640625 C-5.06170174 21.71319298 -5.06170174 21.71319298 -6.26042175 21.09779358 C-6.98490005 20.72077805 -7.70937836 20.34376251 -8.45581055 19.95532227 C-9.09358932 19.62524673 -9.7313681 19.2951712 -10.38847351 18.95509338 C-12 18 -12 18 -14 16 C-14 9.4863122 -11.03181464 4.98362234 -7 0 C-4.16300651 -1.41849675 -3.02611054 -0.96801867 0 0 Z " fill="#FCB912" transform="translate(605,167)"/>
<path d="M0 0 C3.98246361 0.50944858 6.30456769 2.66861567 9.27734375 5.17578125 C10.51403273 6.18394982 11.75102096 7.1917514 12.98828125 8.19921875 C13.62088867 8.7209668 14.25349609 9.24271484 14.90527344 9.78027344 C18.03106171 12.33802346 21.21851782 14.81595815 24.40234375 17.30078125 C26.55059451 18.98524992 28.69563593 20.67365644 30.83984375 22.36328125 C31.78472656 23.06582031 32.72960937 23.76835938 33.703125 24.4921875 C35.83984375 26.36328125 35.83984375 26.36328125 36.46484375 29.36328125 C35.83984375 32.36328125 35.83984375 32.36328125 33.71484375 34.80078125 C30.09364121 36.76882611 28.78687035 36.31788413 24.83984375 35.36328125 C22.02246094 34.15161133 22.02246094 34.15161133 19.13671875 32.6328125 C18.07324219 32.07658203 17.00976562 31.52035156 15.9140625 30.94726562 C14.81707031 30.36267578 13.72007812 29.77808594 12.58984375 29.17578125 C11.50832031 28.61052734 10.42679687 28.04527344 9.3125 27.46289062 C2.68643392 23.97401506 -3.78706916 20.29502153 -10.16015625 16.36328125 C-9.91305587 10.43287212 -6.69397931 1.12575059 0 0 Z " fill="#EE4523" transform="translate(295.16015625,709.63671875)"/>
<path d="M0 0 C1.6203364 2.03062341 3.10101986 4.04722813 4.5625 6.1875 C4.97435547 6.76564453 5.38621094 7.34378906 5.81054688 7.93945312 C8.09777407 11.25237632 9.56792078 13.97484092 10 18 C7.90160347 19.50869023 5.79700219 21.00698357 3.6875 22.5 C3.09259766 22.92925781 2.49769531 23.35851562 1.88476562 23.80078125 C-2.66015625 27 -2.66015625 27 -6 27 C-8.6875 24.5 -8.6875 24.5 -11 22 C-11.62648438 22.5053125 -12.25296875 23.010625 -12.8984375 23.53125 C-13.71570313 24.1809375 -14.53296875 24.830625 -15.375 25.5 C-16.59316406 26.47453125 -16.59316406 26.47453125 -17.8359375 27.46875 C-20 29 -20 29 -22 29 C-24.09375 26.83984375 -24.09375 26.83984375 -26.5 23.9375 C-27.2940625 22.99777344 -28.088125 22.05804687 -28.90625 21.08984375 C-31.25107428 17.62947807 -32.07344076 15.0335541 -33 11 C-30.92692768 9.46317037 -28.84352513 7.94600365 -26.75 6.4375 C-25.87021484 5.78104492 -25.87021484 5.78104492 -24.97265625 5.11132812 C-20.62288846 2.00784212 -20.62288846 2.00784212 -17.828125 1.97265625 C-15.46043327 3.30321806 -13.81268906 4.99309426 -12 7 C-11.30132812 6.4946875 -10.60265625 5.989375 -9.8828125 5.46875 C-8.97273437 4.8190625 -8.06265625 4.169375 -7.125 3.5 C-6.22007812 2.8503125 -5.31515625 2.200625 -4.3828125 1.53125 C-2 0 -2 0 0 0 Z " fill="#068699" transform="translate(522,700)"/>
<path d="M0 0 C1.40268922 1.69491614 2.72390346 3.457835 4 5.25 C4.70125 6.22453125 5.4025 7.1990625 6.125 8.203125 C8.84014674 12.25321889 10 14.04209281 10 19 C7.89422787 20.79138925 5.92637547 22.25944669 3.625 23.75 C2.72007812 24.36681641 2.72007812 24.36681641 1.796875 24.99609375 C-2.69401474 28 -2.69401474 28 -5 28 C-6.7143618 26.04072937 -8.38405168 24.04119788 -10 22 C-13.3 24.31 -16.6 26.62 -20 29 C-25.08285315 25.24837029 -29.41995025 20.86283678 -32 15 C-32.0390625 12.48828125 -32.0390625 12.48828125 -31 10 C-28.27734375 7.76171875 -28.27734375 7.76171875 -24.9375 5.6875 C-23.83277344 4.99011719 -22.72804688 4.29273438 -21.58984375 3.57421875 C-20.73519531 3.05472656 -19.88054687 2.53523437 -19 2 C-16.11562221 3.29299694 -14.12780579 4.65941363 -12 7 C-11.30132812 6.4946875 -10.60265625 5.989375 -9.8828125 5.46875 C-8.97273438 4.8190625 -8.06265625 4.169375 -7.125 3.5 C-6.22007812 2.8503125 -5.31515625 2.200625 -4.3828125 1.53125 C-2 0 -2 0 0 0 Z " fill="#068699" transform="translate(376,828)"/>
<path d="M0 0 C3.56311466 1.78155733 5.35645475 3.16763009 8 6 C10.97 4.02 13.94 2.04 17 0 C20.85944202 1.92972101 22.09197489 2.96934193 24.625 6.25 C25.21539063 6.99765625 25.80578125 7.7453125 26.4140625 8.515625 C28.16495145 11.25839685 29.09109764 13.8863345 30 17 C28.25579087 18.32018588 26.50439909 19.63088602 24.75 20.9375 C23.28820312 22.03384766 23.28820312 22.03384766 21.796875 23.15234375 C17.69746105 25.86047615 17.69746105 25.86047615 15 26 C12.25 23.5625 12.25 23.5625 10 21 C7.24317931 22.02396197 4.90288813 23.06395172 2.4375 24.6875 C0 26 0 26 -1.890625 25.91015625 C-4.99265548 24.57168754 -6.24328684 22.47846425 -8.1875 19.75 C-8.88230469 18.79609375 -9.57710937 17.8421875 -10.29296875 16.859375 C-12 14 -12 14 -13 9 C-8.71 6.03 -4.42 3.06 0 0 Z " fill="#068699" transform="translate(570,717)"/>
<path d="M0 0 C3.15502318 2.37231922 4.10642757 5.36900898 5.4375 9 C5.86160156 10.15628906 6.28570313 11.31257812 6.72265625 12.50390625 C7.35494141 14.23447266 7.35494141 14.23447266 8 16 C8.41121094 17.01964844 8.82242188 18.03929687 9.24609375 19.08984375 C12.88869273 28.27826817 12.88869273 28.27826817 11 33 C8.8651173 35.28737432 7.64139081 35.92579789 4.53515625 36.28515625 C2 36 2 36 0.48046875 34.62890625 C-2.80812286 29.37312087 -5.68676588 23.92759712 -8.4375 18.375 C-8.80399658 17.65900635 -9.17049316 16.9430127 -9.5480957 16.20532227 C-11.81882783 11.44276474 -12.46454464 8.27901774 -11 3 C-7.54470841 -0.06040112 -4.53182663 -0.59110782 0 0 Z " fill="#FCB912" transform="translate(641,155)"/>
<path d="M0 0 C2.1484375 6.640625 2.1484375 6.640625 0.8125 9.875 C-2.00874807 13.18267015 -5.0577974 13.20364308 -9.1875 13.5625 C-14.26967147 13.94056398 -19.34301479 14.16500399 -24.4375 14.25 C-25.75621094 14.27578125 -27.07492187 14.3015625 -28.43359375 14.328125 C-32.20892989 13.98077753 -34.11033522 13.43455629 -37 11 C-37.8303395 8.2904711 -37.53713619 5.76654019 -37 3 C-31.13194361 -5.66236895 -9.36266321 -0.58845021 0 0 Z " fill="#FCB912" transform="translate(630,206)"/>
<path d="M0 0 C2.89619431 -0.12067476 4.36620957 -0.09617266 7 1 C11.76461571 5.71157732 15.32300957 11.43152003 19 17 C20.71896484 16.566875 20.71896484 16.566875 22.47265625 16.125 C24.00250068 15.74957805 25.53245451 15.37460171 27.0625 15 C27.81466797 14.80921875 28.56683594 14.6184375 29.34179688 14.421875 C33.97526202 13.29861072 38.19446709 12.63881982 43 13 C45 14.6875 45 14.6875 46 17 C45.73473404 21.32227472 43.75791595 24.11256409 41.45556641 27.62133789 C37.21821094 33.8499475 37.21821094 33.8499475 36.34375 41.0234375 C37.66767933 43.64707794 39.11375763 45.74989269 41 48 C45.91370882 54.35281615 45.91370882 54.35281615 46.5 58.75 C45.9670454 62.21420488 45.70446644 62.96550366 43 65 C36.9244539 65.69615632 30.96298197 63.0364571 25.48046875 60.7421875 C22.66304702 59.89917942 21.63794304 59.71795968 19 61 C16.72220643 63.39157375 16.72220643 63.39157375 14.5625 66.3125 C7.48953757 75.52580237 7.48953757 75.52580237 2.375 76.5 C0 76 0 76 -1.75 74.375 C-4.48468796 69.17909288 -4.12979846 63.35054619 -4.0625 57.625 C-4.05798828 56.88894531 -4.05347656 56.15289062 -4.04882812 55.39453125 C-4.03715142 53.59631842 -4.01922011 51.79814803 -4 50 C-5.10859375 49.46890625 -6.2171875 48.9378125 -7.359375 48.390625 C-8.82312706 47.67751502 -10.28665714 46.96394929 -11.75 46.25 C-12.84441406 45.72792969 -12.84441406 45.72792969 -13.9609375 45.1953125 C-17.89936501 43.26190263 -21.23188831 41.52371173 -24 38 C-24.0625 35.4375 -24.0625 35.4375 -23 33 C-19.30243931 30.43599806 -15.38773436 28.88228456 -11.1875 27.3125 C-9.44533203 26.65701172 -9.44533203 26.65701172 -7.66796875 25.98828125 C-6.78753906 25.66214844 -5.90710938 25.33601563 -5 25 C-4.95512451 24.38479492 -4.91024902 23.76958984 -4.86401367 23.13574219 C-4.65224669 20.3392577 -4.42009691 17.54482582 -4.1875 14.75 C-4.11724609 13.78191406 -4.04699219 12.81382812 -3.97460938 11.81640625 C-3.89404297 10.88183594 -3.81347656 9.94726562 -3.73046875 8.984375 C-3.66239014 8.12553711 -3.59431152 7.26669922 -3.52416992 6.38183594 C-2.91712721 3.62342479 -1.82711282 2.12125437 0 0 Z M0 2 C-1.72571361 5.01545747 -2.28097659 7.3053913 -2.4140625 10.765625 C-2.45273437 11.65507812 -2.49140625 12.54453125 -2.53125 13.4609375 C-2.57765625 14.84152344 -2.57765625 14.84152344 -2.625 16.25 C-2.66367187 17.18585938 -2.70234375 18.12171875 -2.7421875 19.0859375 C-2.83624844 21.39043054 -2.92189399 23.69492013 -3 26 C-4.12019531 26.40992188 -5.24039062 26.81984375 -6.39453125 27.2421875 C-7.867263 27.78625401 -9.33991511 28.33053611 -10.8125 28.875 C-11.55048828 29.14441406 -12.28847656 29.41382813 -13.04882812 29.69140625 C-13.76103516 29.95566406 -14.47324219 30.21992188 -15.20703125 30.4921875 C-16.18893433 30.85352783 -16.18893433 30.85352783 -17.19067383 31.22216797 C-19.27895937 32.05526168 -19.27895937 32.05526168 -22 34 C-22.16533708 36.35534824 -22.16533708 36.35534824 -21 39 C-18.364368 40.96897214 -15.45896763 42.33026917 -12.5 43.75 C-10.92657529 44.53544142 -9.35363239 45.32184902 -7.78125 46.109375 C-6.7303418 46.61936035 -6.7303418 46.61936035 -5.65820312 47.13964844 C-4 48 -4 48 -3 49 C-2.86769719 50.35540602 -2.79682217 51.71695354 -2.75390625 53.078125 C-2.72103516 53.90957031 -2.68816406 54.74101562 -2.65429688 55.59765625 C-2.59364365 57.3501473 -2.53629086 59.10275604 -2.48242188 60.85546875 C-2.32536794 67.20166918 -2.32536794 67.20166918 0 73 C1.84317619 74.15481099 1.84317619 74.15481099 4 74 C10.28175131 70.29570953 14.78943147 63.80268976 19 58 C23.11045835 58.44437388 26.61269148 59.57156225 30.4375 61.0625 C34.92018786 62.75038793 38.24240671 63.51712971 43 63 C44.34424495 61.86423695 44.34424495 61.86423695 44.34375 58.87890625 C43.91788356 54.07339061 42.29685954 51.72963839 39.5 47.9375 C37.16676403 44.7529482 35.19008772 41.99369994 34.43359375 38.0390625 C35.3476579 33.13463555 38.12906064 29.55493693 40.88867188 25.47851562 C43.48452271 21.59654215 43.48452271 21.59654215 43.77734375 17.03515625 C43.52082031 16.36355469 43.26429688 15.69195312 43 15 C36.65903806 14.68814941 31.63276417 15.43175868 25.578125 17.34375 C20.82533055 18.55355222 20.82533055 18.55355222 18 18 C16.04372685 15.91588529 14.48905198 14.0098592 12.875 11.6875 C9.35330301 6.46924111 9.35330301 6.46924111 5 2 C2.37429296 1.74930087 2.37429296 1.74930087 0 2 Z " fill="#EF573D" transform="translate(384,350)"/>
<path d="M0 0 C1.70542969 -0.0309375 1.70542969 -0.0309375 3.4453125 -0.0625 C5.09273438 -0.07023438 5.09273438 -0.07023438 6.7734375 -0.078125 C7.77552246 -0.0874707 8.77760742 -0.09681641 9.81005859 -0.10644531 C13.12931517 0.31385951 15.00034892 1.18798589 17.625 3.25 C18.17386514 7.64092112 18.10166082 9.53500878 15.625 13.25 C12.74085828 13.80716374 10.0375619 14.18386489 7.125 14.4375 C6.30999023 14.51572998 5.49498047 14.59395996 4.65527344 14.67456055 C-12.11226982 16.20540853 -12.11226982 16.20540853 -18.375 12.25 C-18.74181223 4.79148472 -18.74181223 4.79148472 -17.0625 2.3125 C-11.98905982 -0.88188826 -5.76674472 0.02597633 0 0 Z " fill="#EE4524" transform="translate(305.375,744.75)"/>
<path d="M0 0 C3.27637729 1.03026708 4.16517184 2.7312422 6 5.62890625 C7.53394367 9.23003563 8.74947471 12.90138543 9.9375 16.62890625 C10.44893555 18.10617187 10.44893555 18.10617187 10.97070312 19.61328125 C13.29936919 26.83849253 13.29936919 26.83849253 11.81640625 30.75390625 C9.3292196 33.32132472 8.50266256 33.618853 4.875 33.69140625 C3.451875 33.66046875 3.451875 33.66046875 2 33.62890625 C-0.36177112 29.54739887 -2.70675617 25.45725336 -5.02539062 21.35107422 C-5.81741876 19.95153352 -6.61832926 18.55702229 -7.421875 17.1640625 C-9.78215291 12.84543806 -10.75438695 9.53242144 -10 4.62890625 C-7.41070178 0.42129664 -4.59743872 0.15264933 0 0 Z " fill="#EE4523" transform="translate(330,699.37109375)"/>
<path d="M0 0 C3.63399954 3.63399954 5.79899185 5.90668598 8.25 10.125 C8.75015625 10.97320313 9.2503125 11.82140625 9.765625 12.6953125 C11 15 11 15 12 18 C7.38 21.3 2.76 24.6 -2 28 C-7.71142285 23.43086172 -7.71142285 23.43086172 -10.1875 20.125 C-10.67605469 19.48820313 -11.16460937 18.85140625 -11.66796875 18.1953125 C-13 16 -13 16 -15 10 C-10.05 6.7 -5.1 3.4 0 0 Z " fill="#068699" transform="translate(381,670)"/>
<path d="M0 0 C4.44940915 4.05681423 8.20819985 8.63705744 11 14 C11 15.32 11 16.64 11 18 C8.734375 20.17578125 8.734375 20.17578125 5.75 22.3125 C4.77546875 23.03050781 3.8009375 23.74851563 2.796875 24.48828125 C0 26 0 26 -2.09765625 26.0625 C-4.93195786 24.47948144 -6.32545453 22.32510662 -8.1875 19.6875 C-8.88230469 18.72199219 -9.57710938 17.75648438 -10.29296875 16.76171875 C-11.76621139 14.37823467 -12.56563682 12.72935673 -13 10 C-11.3970551 8.70681744 -9.79259858 7.41550844 -8.1875 6.125 C-7.29417969 5.40570313 -6.40085937 4.68640625 -5.48046875 3.9453125 C-3 2 -3 2 0 0 Z " fill="#068699" transform="translate(326,175)"/>
<path d="M0 0 C1.91015625 2.265625 1.91015625 2.265625 4.0625 5.25 C5.13177734 6.71179688 5.13177734 6.71179688 6.22265625 8.203125 C7.75415249 10.61312787 8.56996146 12.22128943 9 15 C7.04532248 16.33898399 5.0866421 17.67129047 3.125 19 C2.03445313 19.7425 0.94390625 20.485 -0.1796875 21.25 C-3 23 -3 23 -5 23 C-6.91015625 20.734375 -6.91015625 20.734375 -9.0625 17.75 C-9.77535156 16.77546875 -10.48820313 15.8009375 -11.22265625 14.796875 C-12.75415249 12.38687213 -13.56996146 10.77871057 -14 8 C-12.04532248 6.66101601 -10.0866421 5.32870953 -8.125 4 C-7.03445313 3.2575 -5.94390625 2.515 -4.8203125 1.75 C-2 0 -2 0 0 0 Z " fill="#068699" transform="translate(582,698)"/>
<path d="M0 0 C3.98246361 0.50944858 6.30456769 2.66861567 9.27734375 5.17578125 C10.51403273 6.18394982 11.75102096 7.1917514 12.98828125 8.19921875 C13.62088867 8.7209668 14.25349609 9.24271484 14.90527344 9.78027344 C18.03106171 12.33802346 21.21851782 14.81595815 24.40234375 17.30078125 C26.55059451 18.98524992 28.69563593 20.67365644 30.83984375 22.36328125 C31.78472656 23.06582031 32.72960937 23.76835938 33.703125 24.4921875 C35.83984375 26.36328125 35.83984375 26.36328125 36.46484375 29.36328125 C35.83984375 32.36328125 35.83984375 32.36328125 33.71484375 34.80078125 C30.09364121 36.76882611 28.78687035 36.31788413 24.83984375 35.36328125 C22.02246094 34.15161133 22.02246094 34.15161133 19.13671875 32.6328125 C18.07324219 32.07658203 17.00976562 31.52035156 15.9140625 30.94726562 C14.81707031 30.36267578 13.72007812 29.77808594 12.58984375 29.17578125 C11.50832031 28.61052734 10.42679687 28.04527344 9.3125 27.46289062 C2.68643392 23.97401506 -3.78706916 20.29502153 -10.16015625 16.36328125 C-9.91305587 10.43287212 -6.69397931 1.12575059 0 0 Z M-3.99609375 4.15625 C-4.50398438 4.94644531 -5.011875 5.73664062 -5.53515625 6.55078125 C-6.05851562 7.32808594 -6.581875 8.10539063 -7.12109375 8.90625 C-8.45194256 12.05325716 -8.3967256 13.17512962 -7.16015625 16.36328125 C-4.76721433 18.01324407 -2.60588493 19.26995867 -0.01953125 20.53515625 C1.059263 21.08698578 1.059263 21.08698578 2.15985107 21.64996338 C3.68227252 22.42455037 5.20905528 23.19061591 6.73974609 23.94873047 C9.0758332 25.10633856 11.39788082 26.2887859 13.71875 27.4765625 C15.20106722 28.22675548 16.68411771 28.97550168 18.16796875 29.72265625 C18.86085999 30.07366394 19.55375122 30.42467163 20.26763916 30.78631592 C25.3413525 33.29342154 25.3413525 33.29342154 30.83984375 34.36328125 C33.17439036 32.5296979 33.17439036 32.5296979 34.83984375 30.36328125 C33.51200658 27.33368277 32.18214365 25.53758425 29.6015625 23.48046875 C28.95195557 22.95743164 28.30234863 22.43439453 27.63305664 21.89550781 C26.93817139 21.34862305 26.24328613 20.80173828 25.52734375 20.23828125 C24.46277954 19.3870166 24.46277954 19.3870166 23.37670898 18.51855469 C17.71241199 14.00534206 11.98416549 9.57449231 6.21875 5.19140625 C3.83984375 3.36328125 3.83984375 3.36328125 2.83984375 2.36328125 C-0.37327401 1.92027664 -1.62545377 1.84109308 -3.99609375 4.15625 Z " fill="#EF523D" transform="translate(295.16015625,709.63671875)"/>
<path d="M0 0 C3.27637729 1.03026708 4.16517184 2.7312422 6 5.62890625 C7.53394367 9.23003563 8.74947471 12.90138543 9.9375 16.62890625 C10.44893555 18.10617187 10.44893555 18.10617187 10.97070312 19.61328125 C13.29936919 26.83849253 13.29936919 26.83849253 11.81640625 30.75390625 C9.3292196 33.32132472 8.50266256 33.618853 4.875 33.69140625 C3.451875 33.66046875 3.451875 33.66046875 2 33.62890625 C-0.36177112 29.54739887 -2.70675617 25.45725336 -5.02539062 21.35107422 C-5.81741876 19.95153352 -6.61832926 18.55702229 -7.421875 17.1640625 C-9.78215291 12.84543806 -10.75438695 9.53242144 -10 4.62890625 C-7.41070178 0.42129664 -4.59743872 0.15264933 0 0 Z M-8 4.62890625 C-9.05185063 11.58026696 -5.9406323 16.19535188 -2.5 22.06640625 C-1.97535156 22.98873047 -1.45070313 23.91105469 -0.91015625 24.86132812 C0.38011321 27.12516454 1.6835692 29.38021582 3 31.62890625 C6.63351744 31.84080073 6.63351744 31.84080073 9.875 30.44140625 C11.22434931 28.68982118 11.22434931 28.68982118 10.75 26.58203125 C9.71713798 22.51513703 8.44284264 18.54886241 7.125 14.56640625 C6.86847656 13.76396484 6.61195313 12.96152344 6.34765625 12.13476562 C4.51217181 6.42118613 4.51217181 6.42118613 1 1.62890625 C-2.91948001 0.92540984 -5.37083783 1.61023857 -8 4.62890625 Z " fill="#EE523D" transform="translate(330,699.37109375)"/>
<path d="M0 0 C1.70542969 -0.0309375 1.70542969 -0.0309375 3.4453125 -0.0625 C5.09273438 -0.07023438 5.09273438 -0.07023438 6.7734375 -0.078125 C7.77552246 -0.0874707 8.77760742 -0.09681641 9.81005859 -0.10644531 C13.12931517 0.31385951 15.00034892 1.18798589 17.625 3.25 C18.17386514 7.64092112 18.10166082 9.53500878 15.625 13.25 C12.74085828 13.80716374 10.0375619 14.18386489 7.125 14.4375 C6.30999023 14.51572998 5.49498047 14.59395996 4.65527344 14.67456055 C-12.11226982 16.20540853 -12.11226982 16.20540853 -18.375 12.25 C-18.74181223 4.79148472 -18.74181223 4.79148472 -17.0625 2.3125 C-11.98905982 -0.88188826 -5.76674472 0.02597633 0 0 Z M-17.375 6.25 C-17.21349795 9.64154295 -16.79203243 10.83296757 -14.375 13.25 C-11.50455734 13.42495467 -8.74303518 13.48418626 -5.875 13.4375 C-5.06289063 13.42960449 -4.25078125 13.42170898 -3.4140625 13.41357422 C6.87709542 14.00629353 6.87709542 14.00629353 15.625 10.25 C15.79177282 6.66656024 15.79177282 6.66656024 15.625 3.25 C11.17231399 1.02365699 5.13951364 1.97522773 0.25 1.9375 C-1.61785156 1.89399414 -1.61785156 1.89399414 -3.5234375 1.84960938 C-4.7196875 1.84123047 -5.9159375 1.83285156 -7.1484375 1.82421875 C-8.24591309 1.80963623 -9.34338867 1.79505371 -10.47412109 1.7800293 C-14.03807073 2.35742393 -15.23168623 3.39213949 -17.375 6.25 Z " fill="#EF533E" transform="translate(305.375,744.75)"/>
</svg>
